<svg xmlns="http://www.w3.org/2000/svg" viewBox="0 0 187 42"><path fill-rule="evenodd" clip-rule="evenodd" fill="#FFF" d="M4.024 21.072c0-9.921 7.867-17.964 17.571-17.964s17.571 8.043 17.571 17.964-7.867 17.965-17.57 17.965c-9.705 0-17.572-8.043-17.572-17.965z"/><path fill-rule="evenodd" clip-rule="evenodd" fill="#303030" d="M176.45 29.47c-.356-.076-.626-.2-.808-.375a2.062 2.062 0 0 1-.456-.763c-.076-.304-.113-.684-.113-1.14V15.408c0-1.8.633-2.699 1.901-2.699s1.902.9 1.902 2.7v10.68h3.234c1.776 0 2.664.581 2.664 1.743 0 1.169-.888 1.753-2.664 1.753h-4.407c-.509 0-.926-.038-1.253-.114zm-20.838-16.158c.455-.403 1.036-.604 1.742-.604 1.29 0 2.19.71 2.699 2.13l4.145 11.785c.182.479.273.858.273 1.14 0 .553-.179.997-.535 1.331-.357.304-.801.456-1.332.456-.942 0-1.587-.596-1.936-1.788l-.456-1.594h-6.047l-.569 1.708c-.357 1.116-.953 1.674-1.788 1.674-.539 0-.96-.178-1.264-.535-.349-.327-.523-.744-.523-1.253 0-.205.011-.395.034-.57l.148-.5 4.259-11.592c.303-.835.687-1.431 1.15-1.788zm-.422 9.463h3.918l-1.902-6.081-2.016 6.08zm-10.419-7.413l1.856 11.33c.053.38.08.698.08.956 0 .63-.179 1.112-.535 1.446-.38.35-.847.524-1.401.524-1.04 0-1.651-.732-1.833-2.198l-1.173-9.85a537.545 537.545 0 0 1-1.936 7.835c-.486 1.898-.87 3.063-1.15 3.496-.175.304-.387.493-.638.57-.227.098-.546.147-.956.147-.608 0-1.09-.152-1.446-.455-.357-.273-.612-.767-.763-1.48L132.45 17.57l-1.298 9.622c-.152.812-.368 1.42-.65 1.822-.326.38-.766.57-1.32.57-.54 0-.983-.164-1.332-.49-.357-.334-.536-.816-.536-1.447 0-.303.038-.683.114-1.138l2.05-11.296c.152-.866.418-1.526.797-1.982.38-.402.964-.603 1.754-.603 1.366 0 2.24.76 2.619 2.277l2.517 9.85 2.357-9.85c.356-1.518 1.218-2.277 2.585-2.277.835 0 1.442.228 1.822.683.379.433.66 1.116.842 2.05zm23.162 11.49v-11.56c0-1.776.634-2.664 1.901-2.664 1.215 0 1.822.888 1.822 2.664V26.85c0 1.769-.607 2.653-1.822 2.653-1.268 0-1.901-.884-1.901-2.653zM113.24 19.21h6.923v-3.883c0-1.799.623-2.698 1.868-2.698 1.267 0 1.901.9 1.901 2.698V26.92c0 1.776-.634 2.664-1.901 2.664-1.245 0-1.868-.888-1.868-2.664v-4.214h-6.923v4.214c0 1.776-.619 2.664-1.856 2.664-1.298 0-1.947-.888-1.947-2.664V15.327c0-1.799.649-2.698 1.947-2.698 1.237 0 1.856.9 1.856 2.698v3.883zm-7.265 4.942c0 .805-.152 1.526-.456 2.164a4.87 4.87 0 0 1-1.173 1.708 6.64 6.64 0 0 1-2.015 1.139 8.274 8.274 0 0 1-2.585.387c-.767 0-1.465-.064-2.095-.194a17.173 17.173 0 0 1-1.674-.569 4.179 4.179 0 0 1-1.06-.843c-.257-.303-.386-.618-.386-.945 0-.478.167-.869.5-1.173.327-.31.767-.467 1.322-.467.258 0 .538.038.842.114.25.076.543.167.877.274.304.098.645.201 1.025.307.38.046.77.069 1.173.069.539 0 .972-.141 1.298-.422a1.64 1.64 0 0 0 .49-1.207c0-.304-.061-.57-.183-.797a1.544 1.544 0 0 0-.569-.58c-.205-.175-.486-.312-.843-.41-.356-.13-.747-.27-1.172-.422a17.844 17.844 0 0 1-2.016-.718c-.585-.31-1.055-.63-1.412-.956a4.215 4.215 0 0 1-.877-1.253c-.152-.432-.228-.979-.228-1.64a5.1 5.1 0 0 1 .388-2.015 4.317 4.317 0 0 1 1.172-1.594c.509-.479 1.132-.831 1.868-1.06.683-.28 1.469-.42 2.357-.42.683 0 1.302.075 1.856.227.54.13.983.281 1.333.456.41.227.713.493.91.797.183.28.274.584.274.91 0 .456-.14.824-.421 1.105-.281.304-.672.456-1.174.456-.227 0-.47-.038-.728-.114a7.7 7.7 0 0 1-.683-.194 6.58 6.58 0 0 0-.763-.182 2.25 2.25 0 0 0-.718-.114c-.561 0-1.006.137-1.332.41-.304.281-.456.611-.456.99 0 .282.065.525.194.73.152.174.342.326.57.455.25.099.554.213.91.342.403.098.82.224 1.253.375 1.496.51 2.611 1.143 3.348 1.902.706.76 1.059 1.75 1.059 2.973zM88.598 12.708c1.83 0 2.744.608 2.744 1.822 0 1.162-.915 1.743-2.744 1.743h-3.12v3.006h2.665c1.829 0 2.744.584 2.744 1.753 0 1.192-.915 1.788-2.745 1.788h-2.664v3.154h3.28c1.768 0 2.653.596 2.653 1.788 0 1.139-.885 1.708-2.654 1.708h-4.532c-.478 0-.896-.037-1.252-.114-.334-.075-.6-.19-.797-.341a2.093 2.093 0 0 1-.422-.797 4.796 4.796 0 0 1-.114-1.139V15.407c0-.455.038-.85.114-1.184.099-.38.24-.683.421-.911.198-.175.464-.327.798-.456.356-.098.8-.148 1.332-.148h4.293zm-16.808.069c1.017 0 1.917.129 2.699.387.79.273 1.45.626 1.981 1.059a5.142 5.142 0 0 1 1.219 1.64c.25.63.376 1.313.376 2.05 0 1.191-.33 2.178-.991 2.96-.706.812-1.693 1.31-2.96 1.492l3.005 3.336c.73.812 1.094 1.522 1.094 2.13 0 .508-.164.952-.49 1.332-.327.304-.755.455-1.287.455-.41 0-.755-.113-1.036-.341-.326-.25-.653-.592-.98-1.025l-4.418-5.477v4.03c0 1.8-.633 2.7-1.901 2.7-1.245 0-1.868-.9-1.868-2.7V15.408c0-.455.042-.839.125-1.15.077-.35.213-.638.41-.865.183-.228.448-.38.798-.456.303-.106.736-.16 1.298-.16h2.926zm1.754 3.997c-.41-.357-.995-.536-1.754-.536h-1.788v4.031h1.754c.782 0 1.378-.19 1.788-.569.402-.357.603-.85.603-1.48 0-.608-.2-1.09-.603-1.446zm-13.426-3.997c1.822 0 2.733.596 2.733 1.787 0 1.14-.91 1.709-2.733 1.709h-3.006v2.972h2.62c1.806 0 2.71.58 2.71 1.742 0 1.146-.904 1.72-2.71 1.72h-2.62v4.099c0 1.799-.645 2.698-1.936 2.698-1.245 0-1.867-.9-1.867-2.698V15.407c0-.455.026-.839.08-1.15.12-.35.273-.638.455-.865.175-.228.44-.38.797-.456.357-.106.786-.16 1.287-.16h4.19z"/><path fill-rule="evenodd" clip-rule="evenodd" fill="#ACD432" d="M29.851 16.5a.618.618 0 0 0 .182-.455V14.53a.855.855 0 0 0-.307-.683.855.855 0 0 0-.683-.307H14.672c.554 1.548.706 2.919.455 4.11l5.933 3.758c.152.076.33.114.535.114h.034c.183 0 .35-.038.501-.114l7.675-4.862.046-.046zm-.08 2.016l-7.64 4.874a1.406 1.406 0 0 1-.536.113 1.11 1.11 0 0 1-.5-.113l-6.571-4.18a5.998 5.998 0 0 1-1.378 1.435v1.378c0 2.33.828 4.304 2.482 5.921 1.648 1.678 3.637 2.517 5.967 2.517h.194c2.255-.053 4.18-.892 5.773-2.517 1.648-1.617 2.471-3.59 2.471-5.92v-3.958a.443.443 0 0 1-.068.222c-.03.053-.068.118-.114.194a.11.11 0 0 0-.08.034zm5.284 16.01c-3.727 3.705-8.214 5.557-13.46 5.557s-9.732-1.852-13.46-5.557C4.432 30.8 2.58 26.312 2.58 21.066c0-5.245 1.852-9.732 5.557-13.46 3.727-3.696 8.214-5.545 13.46-5.545s9.732 1.849 13.459 5.546c3.705 3.727 5.557 8.214 5.557 13.46 0 5.245-1.852 9.732-5.557 13.46zM11.358 14.838c-.63.478-1.086 1.047-1.366 1.708-.076.129-.137.27-.183.421-.41 1.215-.31 2.646.297 4.293 1.343-.486 2.357-1.12 3.04-1.902a3.92 3.92 0 0 0 .501-.683 4.58 4.58 0 0 0 .535-1.64c.152-.986 0-2.114-.455-3.382-.03-.022-.046-.049-.046-.08-.934.357-1.708.779-2.323 1.265zm1.07-1.834a5.019 5.019 0 0 0-.455-.114c-2.74-.812-4.881.255-6.422 3.2 1.108.585 2.133.9 3.074.945h.114a3.28 3.28 0 0 1 .308-.945 4.84 4.84 0 0 1 1.252-1.753c.554-.509 1.264-.953 2.13-1.333z"/></svg>